<?xml version="1.0" encoding="UTF-8" standalone="no" ?>
<!DOCTYPE svg PUBLIC "-//W3C//DTD SVG 1.1//EN" "http://www.w3.org/Graphics/SVG/1.1/DTD/svg11.dtd">
<svg xmlns="http://www.w3.org/2000/svg" xmlns:xlink="http://www.w3.org/1999/xlink" version="1.1" width="1080" height="1080" viewBox="0 0 1080 1080" xml:space="preserve">
<desc>Created with Fabric.js 4.2.0</desc>
<defs>
</defs>
<rect x="0" y="0" width="100%" height="100%" fill="transparent"></rect>
<g transform="matrix(1 0 0 1 540 540)" id="1f776309-47d5-4058-b9c0-23cef0ec1fb3"  >
<rect style="stroke: none; stroke-width: 1; stroke-dasharray: none; stroke-linecap: butt; stroke-dashoffset: 0; stroke-linejoin: miter; stroke-miterlimit: 4; fill: rgb(255,255,255); fill-rule: nonzero; opacity: 1; visibility: hidden;" vector-effect="non-scaling-stroke"  x="-540" y="-540" rx="0" ry="0" width="1080" height="1080" />
</g>
<g transform="matrix(Infinity NaN NaN Infinity 0 0)" id="eaa97b45-d431-4483-868a-242eecce5d69"  >
</g>
<g transform="matrix(7.71 0 0 7.71 540 540)"  >
<g style="" vector-effect="non-scaling-stroke"   >
		<g transform="matrix(0.12 0 0 0.12 0 15)"  >
<path style="stroke: none; stroke-width: 1; stroke-dasharray: none; stroke-linecap: butt; stroke-dashoffset: 0; stroke-linejoin: miter; stroke-miterlimit: 4; fill: rgb(194,24,143); fill-rule: nonzero; opacity: 1;" vector-effect="non-scaling-stroke"  transform=" translate(-256, -376)" d="M 286.001 336.001 L 226.00099999999998 336.001 C 220.47799999999998 336.001 216.00099999999998 340.47799999999995 216.00099999999998 346.001 L 216.00099999999998 406.001 C 216.00099999999998 411.524 220.47799999999998 416.001 226.00099999999998 416.001 L 286.001 416.001 C 291.52299999999997 416.001 296.001 411.524 296.001 406.001 L 296.001 346.001 C 296.001 340.47799999999995 291.52299999999997 336.001 286.001 336.001 z M 276.001 396.001 L 236.00099999999998 396.001 L 236.00099999999998 356.001 L 276.001 356.001 z" stroke-linecap="round" />
</g>
		<g transform="matrix(0.12 0 0 0.12 23.63 -7.87)"  >
<circle style="stroke: none; stroke-width: 1; stroke-dasharray: none; stroke-linecap: butt; stroke-dashoffset: 0; stroke-linejoin: miter; stroke-miterlimit: 4; fill: rgb(194,24,143); fill-rule: nonzero; opacity: 1;" vector-effect="non-scaling-stroke"  cx="0" cy="0" r="10" />
</g>
		<g transform="matrix(0.12 0 0 0.12 0 0)"  >
<path style="stroke: none; stroke-width: 1; stroke-dasharray: none; stroke-linecap: butt; stroke-dashoffset: 0; stroke-linejoin: miter; stroke-miterlimit: 4; fill: rgb(194,24,143); fill-rule: nonzero; opacity: 1;" vector-effect="non-scaling-stroke"  transform=" translate(-256, -256)" d="M 469.703 233.095 C 468.411 227.727 463.00899999999996 224.418 457.64 225.716 C 452.27099999999996 227.00900000000001 448.966 232.41 450.26 237.78 C 454.07 253.594 456.001 269.818 456.001 286.001 C 456.001 345.32899999999995 430.147 402.054 386.001 441.43899999999996 L 386.001 342.80699999999996 L 399.75399999999996 353.80899999999997 C 404.05199999999996 357.248 410.349 356.575 413.80999999999995 352.24699999999996 C 417.25999999999993 347.93399999999997 416.5609999999999 341.64199999999994 412.24799999999993 338.191 L 262.24799999999993 218.19099999999997 C 258.59599999999995 215.26899999999998 253.40599999999992 215.26899999999998 249.75399999999993 218.19099999999997 L 176.00099999999992 277.193 L 176.00099999999992 255.999 C 176.00099999999992 250.476 171.52399999999992 245.999 166.00099999999992 245.999 C 160.47799999999992 245.999 156.00099999999992 250.476 156.00099999999992 255.999 L 156.00099999999992 293.193 L 99.75399999999992 338.191 C 95.44099999999992 341.64099999999996 94.74199999999992 347.93399999999997 98.19199999999992 352.24699999999996 C 101.64199999999992 356.55899999999997 107.93499999999992 357.25899999999996 112.24799999999992 353.80899999999997 L 126.00099999999992 342.80699999999996 L 126.00099999999992 441.43899999999996 C 81.85499999999992 402.05199999999996 56.00099999999992 345.328 56.00099999999992 286.001 C 56.00099999999992 241.34099999999998 70.35399999999991 197.844 96.00099999999992 163.15699999999998 L 96.00099999999992 176.63099999999997 C 96.00099999999992 206.29999999999998 125.00599999999991 227.20799999999997 153.15599999999992 217.82699999999997 C 179.36599999999993 209.08199999999997 190.48599999999993 178.56699999999998 176.50999999999993 154.12399999999997 C 165.09999999999994 134.18799999999996 162.55999999999995 113.53399999999996 168.89999999999992 92.53799999999997 L 198.69399999999993 129.51599999999996 C 204.96899999999994 137.30599999999995 234.22399999999993 142.64999999999998 250.96499999999992 121.69299999999996 C 271.4709999999999 96.01699999999995 281.2949999999999 62.63299999999995 273.8399999999999 30.06699999999995 C 304.6029999999999 51.543999999999954 320.0279999999999 92.93799999999996 308.3309999999999 130.63499999999993 L 302.6009999999999 149.07799999999995 C 296.9689999999999 167.22199999999995 303.78199999999987 186.53399999999993 319.5569999999999 197.13499999999993 C 332.6699999999999 205.93999999999994 349.4769999999999 206.79599999999994 363.4129999999999 199.36499999999992 C 377.5569999999999 191.82499999999993 386.0009999999999 177.75299999999993 386.0009999999999 161.72199999999992 L 386.0009999999999 131.09799999999993 C 396.0919999999999 139.85299999999992 405.34899999999993 149.73699999999994 413.6509999999999 160.63399999999993 C 416.9969999999999 165.02699999999993 423.26999999999987 165.87599999999992 427.6659999999999 162.52799999999993 C 432.05899999999986 159.18099999999993 432.90699999999987 152.90599999999995 429.5599999999999 148.51299999999992 C 415.8529999999999 130.5229999999999 399.75799999999987 115.02199999999992 381.7229999999999 102.43999999999991 C 378.6679999999999 100.30899999999991 374.6799999999999 100.05299999999991 371.3759999999999 101.7749999999999 C 368.07199999999995 103.49899999999991 366.0009999999999 106.9149999999999 366.0009999999999 110.6409999999999 L 366.0009999999999 161.7209999999999 C 366.0009999999999 170.23599999999988 361.51699999999994 177.7099999999999 354.00499999999994 181.7149999999999 C 346.48499999999996 185.7209999999999 337.77699999999993 185.27799999999988 330.70899999999995 180.5309999999999 C 322.3299999999999 174.9009999999999 318.71099999999996 164.64199999999988 321.70099999999996 155.0079999999999 L 327.431 136.5639999999999 C 344.717 80.85599999999991 314.287 18.887999999999906 259.162 0.5139999999998963 C 255.32399999999998 -0.7660000000001037 251.09599999999998 0.3919999999998963 248.44499999999996 3.4489999999998964 C 245.79599999999996 6.5039999999998965 245.24699999999996 10.854999999999896 247.05499999999998 14.471999999999897 C 269.27299999999997 58.9189999999999 246.26099999999997 95.5319999999999 235.33599999999998 109.2099999999999 C 230.022 115.8629999999999 220.78699999999998 118.1809999999999 212.75599999999997 115.09299999999989 L 173.78599999999997 66.72699999999989 C 171.64999999999998 64.0759999999999 168.31199999999998 62.694999999999894 164.92899999999997 63.05899999999989 C 161.545 63.42299999999989 158.57799999999997 65.4839999999999 157.05499999999998 68.52799999999989 C 141.01299999999998 100.60199999999989 141.73799999999997 133.6359999999999 159.14799999999997 164.0549999999999 C 166.69999999999996 177.2619999999999 161.36599999999996 194.0029999999999 146.82799999999997 198.8539999999999 C 131.64299999999997 203.9129999999999 115.99899999999997 192.6319999999999 115.99899999999997 176.63099999999991 L 115.99899999999997 136.03099999999992 C 115.99899999999997 131.96799999999993 113.54099999999997 128.3089999999999 109.77899999999997 126.77299999999993 C 106.01799999999997 125.23799999999993 101.69999999999996 126.12999999999992 98.85699999999997 129.03199999999993 C 58.90999999999997 169.7969999999999 35.99999999999997 227.00999999999993 35.99999999999997 286.0009999999999 C 35.99999999999997 407.78899999999993 134.64599999999996 512.001 255.99999999999997 512.001 C 377.289 512.001 476 407.85799999999995 476 286.001 C 476.001 268.24199999999996 473.881 250.44199999999998 469.703 233.09499999999997 z M 146.00099999999998 457.21299999999997 L 146.00099999999998 326.80699999999996 L 256.001 238.80699999999996 L 366.001 326.80699999999996 L 366.001 457.212 C 333.126 479.984 295.205 492 256.001 492 C 216.79699999999997 492.001 178.87499999999997 479.984 146.00099999999998 457.213 z" stroke-linecap="round" />
</g>
</g>
</g>
</svg>